G04 EAGLE Gerber RS-274X export*
G75*
%MOMM*%
%FSLAX34Y34*%
%LPD*%
%IN*%
%IPPOS*%
%AMOC8*
5,1,8,0,0,1.08239X$1,22.5*%
G01*
%ADD10C,0.254000*%


D10*
X-1000Y964000D02*
X0Y0D01*
X449100Y-200D01*
X448100Y965700D01*
X-1000Y964000D01*
X384100Y906919D02*
X384037Y906361D01*
X383912Y905814D01*
X383727Y905284D01*
X383483Y904778D01*
X383184Y904302D01*
X382834Y903863D01*
X382437Y903466D01*
X381998Y903116D01*
X381522Y902817D01*
X381016Y902573D01*
X380486Y902388D01*
X379939Y902263D01*
X379381Y902200D01*
X378819Y902200D01*
X378261Y902263D01*
X377714Y902388D01*
X377184Y902573D01*
X376678Y902817D01*
X376202Y903116D01*
X375763Y903466D01*
X375366Y903863D01*
X375016Y904302D01*
X374717Y904778D01*
X374473Y905284D01*
X374288Y905814D01*
X374163Y906361D01*
X374100Y906919D01*
X374100Y907481D01*
X374163Y908039D01*
X374288Y908586D01*
X374473Y909116D01*
X374717Y909622D01*
X375016Y910098D01*
X375366Y910537D01*
X375763Y910934D01*
X376202Y911284D01*
X376678Y911583D01*
X377184Y911827D01*
X377714Y912012D01*
X378261Y912137D01*
X378819Y912200D01*
X379381Y912200D01*
X379939Y912137D01*
X380486Y912012D01*
X381016Y911827D01*
X381522Y911583D01*
X381998Y911284D01*
X382437Y910934D01*
X382834Y910537D01*
X383184Y910098D01*
X383483Y909622D01*
X383727Y909116D01*
X383912Y908586D01*
X384037Y908039D01*
X384100Y907481D01*
X384100Y906919D01*
X384100Y634419D02*
X384037Y633861D01*
X383912Y633314D01*
X383727Y632784D01*
X383483Y632278D01*
X383184Y631802D01*
X382834Y631363D01*
X382437Y630966D01*
X381998Y630616D01*
X381522Y630317D01*
X381016Y630073D01*
X380486Y629888D01*
X379939Y629763D01*
X379381Y629700D01*
X378819Y629700D01*
X378261Y629763D01*
X377714Y629888D01*
X377184Y630073D01*
X376678Y630317D01*
X376202Y630616D01*
X375763Y630966D01*
X375366Y631363D01*
X375016Y631802D01*
X374717Y632278D01*
X374473Y632784D01*
X374288Y633314D01*
X374163Y633861D01*
X374100Y634419D01*
X374100Y634981D01*
X374163Y635539D01*
X374288Y636086D01*
X374473Y636616D01*
X374717Y637122D01*
X375016Y637598D01*
X375366Y638037D01*
X375763Y638434D01*
X376202Y638784D01*
X376678Y639083D01*
X377184Y639327D01*
X377714Y639512D01*
X378261Y639637D01*
X378819Y639700D01*
X379381Y639700D01*
X379939Y639637D01*
X380486Y639512D01*
X381016Y639327D01*
X381522Y639083D01*
X381998Y638784D01*
X382437Y638434D01*
X382834Y638037D01*
X383184Y637598D01*
X383483Y637122D01*
X383727Y636616D01*
X383912Y636086D01*
X384037Y635539D01*
X384100Y634981D01*
X384100Y634419D01*
X384000Y361919D02*
X383937Y361361D01*
X383812Y360814D01*
X383627Y360284D01*
X383383Y359778D01*
X383084Y359302D01*
X382734Y358863D01*
X382337Y358466D01*
X381898Y358116D01*
X381422Y357817D01*
X380916Y357573D01*
X380386Y357388D01*
X379839Y357263D01*
X379281Y357200D01*
X378719Y357200D01*
X378161Y357263D01*
X377614Y357388D01*
X377084Y357573D01*
X376578Y357817D01*
X376102Y358116D01*
X375663Y358466D01*
X375266Y358863D01*
X374916Y359302D01*
X374617Y359778D01*
X374373Y360284D01*
X374188Y360814D01*
X374063Y361361D01*
X374000Y361919D01*
X374000Y362481D01*
X374063Y363039D01*
X374188Y363586D01*
X374373Y364116D01*
X374617Y364622D01*
X374916Y365098D01*
X375266Y365537D01*
X375663Y365934D01*
X376102Y366284D01*
X376578Y366583D01*
X377084Y366827D01*
X377614Y367012D01*
X378161Y367137D01*
X378719Y367200D01*
X379281Y367200D01*
X379839Y367137D01*
X380386Y367012D01*
X380916Y366827D01*
X381422Y366583D01*
X381898Y366284D01*
X382337Y365934D01*
X382734Y365537D01*
X383084Y365098D01*
X383383Y364622D01*
X383627Y364116D01*
X383812Y363586D01*
X383937Y363039D01*
X384000Y362481D01*
X384000Y361919D01*
X384200Y89519D02*
X384137Y88961D01*
X384012Y88414D01*
X383827Y87884D01*
X383583Y87378D01*
X383284Y86902D01*
X382934Y86463D01*
X382537Y86066D01*
X382098Y85716D01*
X381622Y85417D01*
X381116Y85173D01*
X380586Y84988D01*
X380039Y84863D01*
X379481Y84800D01*
X378919Y84800D01*
X378361Y84863D01*
X377814Y84988D01*
X377284Y85173D01*
X376778Y85417D01*
X376302Y85716D01*
X375863Y86066D01*
X375466Y86463D01*
X375116Y86902D01*
X374817Y87378D01*
X374573Y87884D01*
X374388Y88414D01*
X374263Y88961D01*
X374200Y89519D01*
X374200Y90081D01*
X374263Y90639D01*
X374388Y91186D01*
X374573Y91716D01*
X374817Y92222D01*
X375116Y92698D01*
X375466Y93137D01*
X375863Y93534D01*
X376302Y93884D01*
X376778Y94183D01*
X377284Y94427D01*
X377814Y94612D01*
X378361Y94737D01*
X378919Y94800D01*
X379481Y94800D01*
X380039Y94737D01*
X380586Y94612D01*
X381116Y94427D01*
X381622Y94183D01*
X382098Y93884D01*
X382537Y93534D01*
X382934Y93137D01*
X383284Y92698D01*
X383583Y92222D01*
X383827Y91716D01*
X384012Y91186D01*
X384137Y90639D01*
X384200Y90081D01*
X384200Y89519D01*
X73800Y89419D02*
X73737Y88861D01*
X73612Y88314D01*
X73427Y87784D01*
X73183Y87278D01*
X72884Y86802D01*
X72534Y86363D01*
X72137Y85966D01*
X71698Y85616D01*
X71222Y85317D01*
X70716Y85073D01*
X70186Y84888D01*
X69639Y84763D01*
X69081Y84700D01*
X68519Y84700D01*
X67961Y84763D01*
X67414Y84888D01*
X66884Y85073D01*
X66378Y85317D01*
X65902Y85616D01*
X65463Y85966D01*
X65066Y86363D01*
X64716Y86802D01*
X64417Y87278D01*
X64173Y87784D01*
X63988Y88314D01*
X63863Y88861D01*
X63800Y89419D01*
X63800Y89981D01*
X63863Y90539D01*
X63988Y91086D01*
X64173Y91616D01*
X64417Y92122D01*
X64716Y92598D01*
X65066Y93037D01*
X65463Y93434D01*
X65902Y93784D01*
X66378Y94083D01*
X66884Y94327D01*
X67414Y94512D01*
X67961Y94637D01*
X68519Y94700D01*
X69081Y94700D01*
X69639Y94637D01*
X70186Y94512D01*
X70716Y94327D01*
X71222Y94083D01*
X71698Y93784D01*
X72137Y93434D01*
X72534Y93037D01*
X72884Y92598D01*
X73183Y92122D01*
X73427Y91616D01*
X73612Y91086D01*
X73737Y90539D01*
X73800Y89981D01*
X73800Y89419D01*
X73700Y361819D02*
X73637Y361261D01*
X73512Y360714D01*
X73327Y360184D01*
X73083Y359678D01*
X72784Y359202D01*
X72434Y358763D01*
X72037Y358366D01*
X71598Y358016D01*
X71122Y357717D01*
X70616Y357473D01*
X70086Y357288D01*
X69539Y357163D01*
X68981Y357100D01*
X68419Y357100D01*
X67861Y357163D01*
X67314Y357288D01*
X66784Y357473D01*
X66278Y357717D01*
X65802Y358016D01*
X65363Y358366D01*
X64966Y358763D01*
X64616Y359202D01*
X64317Y359678D01*
X64073Y360184D01*
X63888Y360714D01*
X63763Y361261D01*
X63700Y361819D01*
X63700Y362381D01*
X63763Y362939D01*
X63888Y363486D01*
X64073Y364016D01*
X64317Y364522D01*
X64616Y364998D01*
X64966Y365437D01*
X65363Y365834D01*
X65802Y366184D01*
X66278Y366483D01*
X66784Y366727D01*
X67314Y366912D01*
X67861Y367037D01*
X68419Y367100D01*
X68981Y367100D01*
X69539Y367037D01*
X70086Y366912D01*
X70616Y366727D01*
X71122Y366483D01*
X71598Y366184D01*
X72037Y365834D01*
X72434Y365437D01*
X72784Y364998D01*
X73083Y364522D01*
X73327Y364016D01*
X73512Y363486D01*
X73637Y362939D01*
X73700Y362381D01*
X73700Y361819D01*
X73700Y634119D02*
X73637Y633561D01*
X73512Y633014D01*
X73327Y632484D01*
X73083Y631978D01*
X72784Y631502D01*
X72434Y631063D01*
X72037Y630666D01*
X71598Y630316D01*
X71122Y630017D01*
X70616Y629773D01*
X70086Y629588D01*
X69539Y629463D01*
X68981Y629400D01*
X68419Y629400D01*
X67861Y629463D01*
X67314Y629588D01*
X66784Y629773D01*
X66278Y630017D01*
X65802Y630316D01*
X65363Y630666D01*
X64966Y631063D01*
X64616Y631502D01*
X64317Y631978D01*
X64073Y632484D01*
X63888Y633014D01*
X63763Y633561D01*
X63700Y634119D01*
X63700Y634681D01*
X63763Y635239D01*
X63888Y635786D01*
X64073Y636316D01*
X64317Y636822D01*
X64616Y637298D01*
X64966Y637737D01*
X65363Y638134D01*
X65802Y638484D01*
X66278Y638783D01*
X66784Y639027D01*
X67314Y639212D01*
X67861Y639337D01*
X68419Y639400D01*
X68981Y639400D01*
X69539Y639337D01*
X70086Y639212D01*
X70616Y639027D01*
X71122Y638783D01*
X71598Y638484D01*
X72037Y638134D01*
X72434Y637737D01*
X72784Y637298D01*
X73083Y636822D01*
X73327Y636316D01*
X73512Y635786D01*
X73637Y635239D01*
X73700Y634681D01*
X73700Y634119D01*
X73700Y906519D02*
X73637Y905961D01*
X73512Y905414D01*
X73327Y904884D01*
X73083Y904378D01*
X72784Y903902D01*
X72434Y903463D01*
X72037Y903066D01*
X71598Y902716D01*
X71122Y902417D01*
X70616Y902173D01*
X70086Y901988D01*
X69539Y901863D01*
X68981Y901800D01*
X68419Y901800D01*
X67861Y901863D01*
X67314Y901988D01*
X66784Y902173D01*
X66278Y902417D01*
X65802Y902716D01*
X65363Y903066D01*
X64966Y903463D01*
X64616Y903902D01*
X64317Y904378D01*
X64073Y904884D01*
X63888Y905414D01*
X63763Y905961D01*
X63700Y906519D01*
X63700Y907081D01*
X63763Y907639D01*
X63888Y908186D01*
X64073Y908716D01*
X64317Y909222D01*
X64616Y909698D01*
X64966Y910137D01*
X65363Y910534D01*
X65802Y910884D01*
X66278Y911183D01*
X66784Y911427D01*
X67314Y911612D01*
X67861Y911737D01*
X68419Y911800D01*
X68981Y911800D01*
X69539Y911737D01*
X70086Y911612D01*
X70616Y911427D01*
X71122Y911183D01*
X71598Y910884D01*
X72037Y910534D01*
X72434Y910137D01*
X72784Y909698D01*
X73083Y909222D01*
X73327Y908716D01*
X73512Y908186D01*
X73637Y907639D01*
X73700Y907081D01*
X73700Y906519D01*
M02*
