G04 EAGLE Gerber RS-274X export*
G75*
%MOMM*%
%FSLAX34Y34*%
%LPD*%
%INSilkscreen Top*%
%IPPOS*%
%AMOC8*
5,1,8,0,0,1.08239X$1,22.5*%
G01*
%ADD10C,0.101600*%
%ADD11C,0.203200*%
%ADD12C,0.127000*%


D10*
X136203Y28092D02*
X136203Y19004D01*
X136202Y19004D02*
X136200Y18905D01*
X136194Y18805D01*
X136185Y18706D01*
X136172Y18608D01*
X136155Y18510D01*
X136134Y18412D01*
X136109Y18316D01*
X136081Y18221D01*
X136049Y18127D01*
X136014Y18034D01*
X135975Y17942D01*
X135932Y17852D01*
X135887Y17764D01*
X135837Y17677D01*
X135785Y17593D01*
X135729Y17510D01*
X135671Y17430D01*
X135609Y17352D01*
X135544Y17277D01*
X135476Y17204D01*
X135406Y17134D01*
X135333Y17066D01*
X135258Y17001D01*
X135180Y16939D01*
X135100Y16881D01*
X135017Y16825D01*
X134933Y16773D01*
X134846Y16723D01*
X134758Y16678D01*
X134668Y16635D01*
X134576Y16596D01*
X134483Y16561D01*
X134389Y16529D01*
X134294Y16501D01*
X134198Y16476D01*
X134100Y16455D01*
X134002Y16438D01*
X133904Y16425D01*
X133805Y16416D01*
X133705Y16410D01*
X133606Y16408D01*
X132308Y16408D01*
X141880Y16408D02*
X141880Y28092D01*
X141880Y16408D02*
X147073Y16408D01*
X153945Y16408D02*
X156542Y16408D01*
X153945Y16408D02*
X153846Y16410D01*
X153746Y16416D01*
X153647Y16425D01*
X153549Y16438D01*
X153451Y16455D01*
X153353Y16476D01*
X153257Y16501D01*
X153162Y16529D01*
X153068Y16561D01*
X152975Y16596D01*
X152883Y16635D01*
X152793Y16678D01*
X152705Y16723D01*
X152618Y16773D01*
X152534Y16825D01*
X152451Y16881D01*
X152371Y16939D01*
X152293Y17001D01*
X152218Y17066D01*
X152145Y17134D01*
X152075Y17204D01*
X152007Y17277D01*
X151942Y17352D01*
X151880Y17430D01*
X151822Y17510D01*
X151766Y17593D01*
X151714Y17677D01*
X151664Y17764D01*
X151619Y17852D01*
X151576Y17942D01*
X151537Y18034D01*
X151502Y18127D01*
X151470Y18221D01*
X151442Y18316D01*
X151417Y18412D01*
X151396Y18510D01*
X151379Y18608D01*
X151366Y18706D01*
X151357Y18805D01*
X151351Y18905D01*
X151349Y19004D01*
X151349Y25496D01*
X151351Y25595D01*
X151357Y25695D01*
X151366Y25794D01*
X151379Y25892D01*
X151396Y25990D01*
X151417Y26088D01*
X151442Y26184D01*
X151470Y26279D01*
X151502Y26373D01*
X151537Y26466D01*
X151576Y26558D01*
X151619Y26648D01*
X151664Y26736D01*
X151714Y26823D01*
X151766Y26907D01*
X151822Y26990D01*
X151880Y27070D01*
X151942Y27148D01*
X152007Y27223D01*
X152075Y27296D01*
X152145Y27366D01*
X152218Y27434D01*
X152293Y27499D01*
X152371Y27561D01*
X152451Y27619D01*
X152534Y27675D01*
X152618Y27727D01*
X152705Y27777D01*
X152793Y27822D01*
X152883Y27865D01*
X152975Y27904D01*
X153067Y27939D01*
X153162Y27971D01*
X153257Y27999D01*
X153353Y28024D01*
X153451Y28045D01*
X153549Y28062D01*
X153647Y28075D01*
X153746Y28084D01*
X153846Y28090D01*
X153945Y28092D01*
X156542Y28092D01*
X163635Y28092D02*
X163635Y19004D01*
X163634Y19004D02*
X163632Y18905D01*
X163626Y18805D01*
X163617Y18706D01*
X163604Y18608D01*
X163587Y18510D01*
X163566Y18412D01*
X163541Y18316D01*
X163513Y18221D01*
X163481Y18127D01*
X163446Y18034D01*
X163407Y17942D01*
X163364Y17852D01*
X163319Y17764D01*
X163269Y17677D01*
X163217Y17593D01*
X163161Y17510D01*
X163103Y17430D01*
X163041Y17352D01*
X162976Y17277D01*
X162908Y17204D01*
X162838Y17134D01*
X162765Y17066D01*
X162690Y17001D01*
X162612Y16939D01*
X162532Y16881D01*
X162449Y16825D01*
X162365Y16773D01*
X162278Y16723D01*
X162190Y16678D01*
X162100Y16635D01*
X162008Y16596D01*
X161915Y16561D01*
X161821Y16529D01*
X161726Y16501D01*
X161630Y16476D01*
X161532Y16455D01*
X161434Y16438D01*
X161336Y16425D01*
X161237Y16416D01*
X161137Y16410D01*
X161038Y16408D01*
X159740Y16408D01*
X169312Y16408D02*
X169312Y28092D01*
X169312Y16408D02*
X174505Y16408D01*
X181377Y16408D02*
X183974Y16408D01*
X181377Y16408D02*
X181278Y16410D01*
X181178Y16416D01*
X181079Y16425D01*
X180981Y16438D01*
X180883Y16455D01*
X180785Y16476D01*
X180689Y16501D01*
X180594Y16529D01*
X180500Y16561D01*
X180407Y16596D01*
X180315Y16635D01*
X180225Y16678D01*
X180137Y16723D01*
X180050Y16773D01*
X179966Y16825D01*
X179883Y16881D01*
X179803Y16939D01*
X179725Y17001D01*
X179650Y17066D01*
X179577Y17134D01*
X179507Y17204D01*
X179439Y17277D01*
X179374Y17352D01*
X179312Y17430D01*
X179254Y17510D01*
X179198Y17593D01*
X179146Y17677D01*
X179096Y17764D01*
X179051Y17852D01*
X179008Y17942D01*
X178969Y18034D01*
X178934Y18127D01*
X178902Y18221D01*
X178874Y18316D01*
X178849Y18412D01*
X178828Y18510D01*
X178811Y18608D01*
X178798Y18706D01*
X178789Y18805D01*
X178783Y18905D01*
X178781Y19004D01*
X178781Y25496D01*
X178783Y25595D01*
X178789Y25695D01*
X178798Y25794D01*
X178811Y25892D01*
X178828Y25990D01*
X178849Y26088D01*
X178874Y26184D01*
X178902Y26279D01*
X178934Y26373D01*
X178969Y26466D01*
X179008Y26558D01*
X179051Y26648D01*
X179096Y26736D01*
X179146Y26823D01*
X179198Y26907D01*
X179254Y26990D01*
X179312Y27070D01*
X179374Y27148D01*
X179439Y27223D01*
X179507Y27296D01*
X179577Y27366D01*
X179650Y27434D01*
X179725Y27499D01*
X179803Y27561D01*
X179883Y27619D01*
X179966Y27675D01*
X180050Y27727D01*
X180137Y27777D01*
X180225Y27822D01*
X180315Y27865D01*
X180407Y27904D01*
X180499Y27939D01*
X180594Y27971D01*
X180689Y27999D01*
X180785Y28024D01*
X180883Y28045D01*
X180981Y28062D01*
X181079Y28075D01*
X181178Y28084D01*
X181278Y28090D01*
X181377Y28092D01*
X183974Y28092D01*
X191067Y28092D02*
X191067Y19004D01*
X191066Y19004D02*
X191064Y18905D01*
X191058Y18805D01*
X191049Y18706D01*
X191036Y18608D01*
X191019Y18510D01*
X190998Y18412D01*
X190973Y18316D01*
X190945Y18221D01*
X190913Y18127D01*
X190878Y18034D01*
X190839Y17942D01*
X190796Y17852D01*
X190751Y17764D01*
X190701Y17677D01*
X190649Y17593D01*
X190593Y17510D01*
X190535Y17430D01*
X190473Y17352D01*
X190408Y17277D01*
X190340Y17204D01*
X190270Y17134D01*
X190197Y17066D01*
X190122Y17001D01*
X190044Y16939D01*
X189964Y16881D01*
X189881Y16825D01*
X189797Y16773D01*
X189710Y16723D01*
X189622Y16678D01*
X189532Y16635D01*
X189440Y16596D01*
X189347Y16561D01*
X189253Y16529D01*
X189158Y16501D01*
X189062Y16476D01*
X188964Y16455D01*
X188866Y16438D01*
X188768Y16425D01*
X188669Y16416D01*
X188569Y16410D01*
X188470Y16408D01*
X187172Y16408D01*
X196744Y16408D02*
X196744Y28092D01*
X196744Y16408D02*
X201937Y16408D01*
X208809Y16408D02*
X211406Y16408D01*
X208809Y16408D02*
X208710Y16410D01*
X208610Y16416D01*
X208511Y16425D01*
X208413Y16438D01*
X208315Y16455D01*
X208217Y16476D01*
X208121Y16501D01*
X208026Y16529D01*
X207932Y16561D01*
X207839Y16596D01*
X207747Y16635D01*
X207657Y16678D01*
X207569Y16723D01*
X207482Y16773D01*
X207398Y16825D01*
X207315Y16881D01*
X207235Y16939D01*
X207157Y17001D01*
X207082Y17066D01*
X207009Y17134D01*
X206939Y17204D01*
X206871Y17277D01*
X206806Y17352D01*
X206744Y17430D01*
X206686Y17510D01*
X206630Y17593D01*
X206578Y17677D01*
X206528Y17764D01*
X206483Y17852D01*
X206440Y17942D01*
X206401Y18034D01*
X206366Y18127D01*
X206334Y18221D01*
X206306Y18316D01*
X206281Y18412D01*
X206260Y18510D01*
X206243Y18608D01*
X206230Y18706D01*
X206221Y18805D01*
X206215Y18905D01*
X206213Y19004D01*
X206213Y25496D01*
X206215Y25595D01*
X206221Y25695D01*
X206230Y25794D01*
X206243Y25892D01*
X206260Y25990D01*
X206281Y26088D01*
X206306Y26184D01*
X206334Y26279D01*
X206366Y26373D01*
X206401Y26466D01*
X206440Y26558D01*
X206483Y26648D01*
X206528Y26736D01*
X206578Y26823D01*
X206630Y26907D01*
X206686Y26990D01*
X206744Y27070D01*
X206806Y27148D01*
X206871Y27223D01*
X206939Y27296D01*
X207009Y27366D01*
X207082Y27434D01*
X207157Y27499D01*
X207235Y27561D01*
X207315Y27619D01*
X207398Y27675D01*
X207482Y27727D01*
X207569Y27777D01*
X207657Y27822D01*
X207747Y27865D01*
X207839Y27904D01*
X207931Y27939D01*
X208026Y27971D01*
X208121Y27999D01*
X208217Y28024D01*
X208315Y28045D01*
X208413Y28062D01*
X208511Y28075D01*
X208610Y28084D01*
X208710Y28090D01*
X208809Y28092D01*
X211406Y28092D01*
X218499Y28092D02*
X218499Y19004D01*
X218498Y19004D02*
X218496Y18905D01*
X218490Y18805D01*
X218481Y18706D01*
X218468Y18608D01*
X218451Y18510D01*
X218430Y18412D01*
X218405Y18316D01*
X218377Y18221D01*
X218345Y18127D01*
X218310Y18034D01*
X218271Y17942D01*
X218228Y17852D01*
X218183Y17764D01*
X218133Y17677D01*
X218081Y17593D01*
X218025Y17510D01*
X217967Y17430D01*
X217905Y17352D01*
X217840Y17277D01*
X217772Y17204D01*
X217702Y17134D01*
X217629Y17066D01*
X217554Y17001D01*
X217476Y16939D01*
X217396Y16881D01*
X217313Y16825D01*
X217229Y16773D01*
X217142Y16723D01*
X217054Y16678D01*
X216964Y16635D01*
X216872Y16596D01*
X216779Y16561D01*
X216685Y16529D01*
X216590Y16501D01*
X216494Y16476D01*
X216396Y16455D01*
X216298Y16438D01*
X216200Y16425D01*
X216101Y16416D01*
X216001Y16410D01*
X215902Y16408D01*
X214604Y16408D01*
X224176Y16408D02*
X224176Y28092D01*
X224176Y16408D02*
X229369Y16408D01*
X236241Y16408D02*
X238838Y16408D01*
X236241Y16408D02*
X236142Y16410D01*
X236042Y16416D01*
X235943Y16425D01*
X235845Y16438D01*
X235747Y16455D01*
X235649Y16476D01*
X235553Y16501D01*
X235458Y16529D01*
X235364Y16561D01*
X235271Y16596D01*
X235179Y16635D01*
X235089Y16678D01*
X235001Y16723D01*
X234914Y16773D01*
X234830Y16825D01*
X234747Y16881D01*
X234667Y16939D01*
X234589Y17001D01*
X234514Y17066D01*
X234441Y17134D01*
X234371Y17204D01*
X234303Y17277D01*
X234238Y17352D01*
X234176Y17430D01*
X234118Y17510D01*
X234062Y17593D01*
X234010Y17677D01*
X233960Y17764D01*
X233915Y17852D01*
X233872Y17942D01*
X233833Y18034D01*
X233798Y18127D01*
X233766Y18221D01*
X233738Y18316D01*
X233713Y18412D01*
X233692Y18510D01*
X233675Y18608D01*
X233662Y18706D01*
X233653Y18805D01*
X233647Y18905D01*
X233645Y19004D01*
X233645Y25496D01*
X233647Y25595D01*
X233653Y25695D01*
X233662Y25794D01*
X233675Y25892D01*
X233692Y25990D01*
X233713Y26088D01*
X233738Y26184D01*
X233766Y26279D01*
X233798Y26373D01*
X233833Y26466D01*
X233872Y26558D01*
X233915Y26648D01*
X233960Y26736D01*
X234010Y26823D01*
X234062Y26907D01*
X234118Y26990D01*
X234176Y27070D01*
X234238Y27148D01*
X234303Y27223D01*
X234371Y27296D01*
X234441Y27366D01*
X234514Y27434D01*
X234589Y27499D01*
X234667Y27561D01*
X234747Y27619D01*
X234830Y27675D01*
X234914Y27727D01*
X235001Y27777D01*
X235089Y27822D01*
X235179Y27865D01*
X235271Y27904D01*
X235363Y27939D01*
X235458Y27971D01*
X235553Y27999D01*
X235649Y28024D01*
X235747Y28045D01*
X235845Y28062D01*
X235943Y28075D01*
X236042Y28084D01*
X236142Y28090D01*
X236241Y28092D01*
X238838Y28092D01*
D11*
X189300Y410450D02*
X195650Y416800D01*
X189300Y397750D02*
X195650Y391400D01*
X189300Y385050D01*
X189300Y372350D02*
X195650Y366000D01*
X189300Y359650D01*
X189300Y346950D02*
X195650Y340600D01*
X195650Y416800D02*
X233750Y416800D01*
X240100Y410450D01*
X240100Y397750D01*
X233750Y391400D01*
X240100Y385050D01*
X240100Y372350D01*
X233750Y366000D01*
X240100Y359650D01*
X240100Y346950D01*
X233750Y340600D01*
X233750Y391400D02*
X195650Y391400D01*
X195650Y366000D02*
X233750Y366000D01*
X233750Y340600D02*
X195650Y340600D01*
X189300Y346950D02*
X189300Y359650D01*
X189300Y372350D02*
X189300Y385050D01*
X189300Y397750D02*
X189300Y410450D01*
X185950Y410450D02*
X185950Y397750D01*
D12*
X243275Y410536D02*
X247029Y410536D01*
X247094Y410534D01*
X247158Y410528D01*
X247222Y410518D01*
X247286Y410505D01*
X247348Y410487D01*
X247409Y410466D01*
X247469Y410442D01*
X247527Y410413D01*
X247584Y410381D01*
X247638Y410346D01*
X247690Y410308D01*
X247740Y410266D01*
X247787Y410222D01*
X247831Y410175D01*
X247873Y410125D01*
X247911Y410073D01*
X247946Y410019D01*
X247978Y409962D01*
X248007Y409904D01*
X248031Y409844D01*
X248052Y409783D01*
X248070Y409721D01*
X248083Y409657D01*
X248093Y409593D01*
X248099Y409529D01*
X248101Y409464D01*
X248101Y408927D01*
X244347Y413484D02*
X243275Y414824D01*
X248101Y414824D01*
X248101Y413484D02*
X248101Y416165D01*
D11*
X415100Y566452D02*
X429670Y566452D01*
X368100Y567722D02*
X365100Y567722D01*
X328530Y650972D02*
X328530Y689452D01*
X429670Y618322D02*
X429670Y566452D01*
X328530Y566452D02*
X328530Y618332D01*
X429670Y650972D02*
X429670Y689452D01*
X328530Y689452D01*
X328830Y566452D02*
X343100Y566452D01*
X390100Y567722D02*
X393100Y567722D01*
D12*
X373656Y692507D02*
X372048Y697333D01*
X375265Y697333D02*
X373656Y692507D01*
X378049Y692507D02*
X378049Y697333D01*
X379389Y697333D01*
X379389Y697334D02*
X379460Y697332D01*
X379532Y697326D01*
X379602Y697317D01*
X379672Y697304D01*
X379742Y697287D01*
X379810Y697266D01*
X379877Y697242D01*
X379943Y697214D01*
X380007Y697183D01*
X380070Y697148D01*
X380130Y697110D01*
X380189Y697069D01*
X380245Y697025D01*
X380299Y696978D01*
X380350Y696929D01*
X380398Y696876D01*
X380444Y696821D01*
X380486Y696764D01*
X380526Y696704D01*
X380562Y696643D01*
X380595Y696579D01*
X380624Y696514D01*
X380650Y696448D01*
X380673Y696380D01*
X380692Y696311D01*
X380707Y696241D01*
X380718Y696171D01*
X380726Y696100D01*
X380730Y696029D01*
X380730Y695957D01*
X380726Y695886D01*
X380718Y695815D01*
X380707Y695745D01*
X380692Y695675D01*
X380673Y695606D01*
X380650Y695538D01*
X380624Y695472D01*
X380595Y695407D01*
X380562Y695343D01*
X380526Y695282D01*
X380486Y695222D01*
X380444Y695165D01*
X380398Y695110D01*
X380350Y695057D01*
X380299Y695008D01*
X380245Y694961D01*
X380189Y694917D01*
X380130Y694876D01*
X380070Y694838D01*
X380007Y694803D01*
X379943Y694772D01*
X379877Y694744D01*
X379810Y694720D01*
X379742Y694699D01*
X379672Y694682D01*
X379602Y694669D01*
X379532Y694660D01*
X379460Y694654D01*
X379389Y694652D01*
X378049Y694652D01*
X379657Y694652D02*
X380730Y692507D01*
X383471Y696261D02*
X384812Y697333D01*
X384812Y692507D01*
X386152Y692507D02*
X383471Y692507D01*
D11*
X415100Y294008D02*
X429670Y294008D01*
X368100Y295278D02*
X365100Y295278D01*
X328530Y378528D02*
X328530Y417008D01*
X429670Y345878D02*
X429670Y294008D01*
X328530Y294008D02*
X328530Y345888D01*
X429670Y378528D02*
X429670Y417008D01*
X328530Y417008D01*
X328830Y294008D02*
X343100Y294008D01*
X390100Y295278D02*
X393100Y295278D01*
D12*
X373656Y420063D02*
X372048Y424889D01*
X375265Y424889D02*
X373656Y420063D01*
X378049Y420063D02*
X378049Y424889D01*
X379389Y424889D01*
X379460Y424887D01*
X379532Y424881D01*
X379602Y424872D01*
X379672Y424859D01*
X379742Y424842D01*
X379810Y424821D01*
X379877Y424797D01*
X379943Y424769D01*
X380007Y424738D01*
X380070Y424703D01*
X380130Y424665D01*
X380189Y424624D01*
X380245Y424580D01*
X380299Y424533D01*
X380350Y424484D01*
X380398Y424431D01*
X380444Y424376D01*
X380486Y424319D01*
X380526Y424259D01*
X380562Y424198D01*
X380595Y424134D01*
X380624Y424069D01*
X380650Y424003D01*
X380673Y423935D01*
X380692Y423866D01*
X380707Y423796D01*
X380718Y423726D01*
X380726Y423655D01*
X380730Y423584D01*
X380730Y423512D01*
X380726Y423441D01*
X380718Y423370D01*
X380707Y423300D01*
X380692Y423230D01*
X380673Y423161D01*
X380650Y423093D01*
X380624Y423027D01*
X380595Y422962D01*
X380562Y422898D01*
X380526Y422837D01*
X380486Y422777D01*
X380444Y422720D01*
X380398Y422665D01*
X380350Y422612D01*
X380299Y422563D01*
X380245Y422516D01*
X380189Y422472D01*
X380130Y422431D01*
X380070Y422393D01*
X380007Y422358D01*
X379943Y422327D01*
X379877Y422299D01*
X379810Y422275D01*
X379742Y422254D01*
X379672Y422237D01*
X379602Y422224D01*
X379532Y422215D01*
X379460Y422209D01*
X379389Y422207D01*
X379389Y422208D02*
X378049Y422208D01*
X379657Y422208D02*
X380730Y420063D01*
X384946Y424889D02*
X385014Y424887D01*
X385081Y424881D01*
X385148Y424872D01*
X385215Y424859D01*
X385280Y424842D01*
X385345Y424821D01*
X385408Y424797D01*
X385470Y424769D01*
X385530Y424738D01*
X385588Y424704D01*
X385644Y424666D01*
X385699Y424626D01*
X385750Y424582D01*
X385799Y424535D01*
X385846Y424486D01*
X385890Y424435D01*
X385930Y424380D01*
X385968Y424324D01*
X386002Y424266D01*
X386033Y424206D01*
X386061Y424144D01*
X386085Y424081D01*
X386106Y424016D01*
X386123Y423951D01*
X386136Y423884D01*
X386145Y423817D01*
X386151Y423750D01*
X386153Y423682D01*
X384946Y424889D02*
X384868Y424887D01*
X384790Y424881D01*
X384713Y424871D01*
X384636Y424858D01*
X384560Y424840D01*
X384485Y424819D01*
X384411Y424794D01*
X384339Y424765D01*
X384268Y424733D01*
X384199Y424697D01*
X384131Y424658D01*
X384066Y424615D01*
X384003Y424569D01*
X383942Y424520D01*
X383884Y424468D01*
X383829Y424413D01*
X383776Y424356D01*
X383727Y424296D01*
X383680Y424233D01*
X383637Y424169D01*
X383597Y424102D01*
X383560Y424033D01*
X383527Y423962D01*
X383497Y423890D01*
X383471Y423817D01*
X385751Y422744D02*
X385800Y422793D01*
X385847Y422845D01*
X385890Y422900D01*
X385931Y422957D01*
X385969Y423016D01*
X386003Y423077D01*
X386034Y423140D01*
X386062Y423204D01*
X386086Y423270D01*
X386106Y423336D01*
X386123Y423404D01*
X386136Y423473D01*
X386145Y423542D01*
X386151Y423612D01*
X386153Y423682D01*
X385750Y422744D02*
X383471Y420063D01*
X386152Y420063D01*
D11*
X415100Y21563D02*
X429670Y21563D01*
X368100Y22833D02*
X365100Y22833D01*
X328530Y106083D02*
X328530Y144563D01*
X429670Y73433D02*
X429670Y21563D01*
X328530Y21563D02*
X328530Y73443D01*
X429670Y106083D02*
X429670Y144563D01*
X328530Y144563D01*
X328830Y21563D02*
X343100Y21563D01*
X390100Y22833D02*
X393100Y22833D01*
D12*
X373656Y147618D02*
X372048Y152444D01*
X375265Y152444D02*
X373656Y147618D01*
X378049Y147618D02*
X378049Y152444D01*
X379389Y152444D01*
X379389Y152445D02*
X379460Y152443D01*
X379532Y152437D01*
X379602Y152428D01*
X379672Y152415D01*
X379742Y152398D01*
X379810Y152377D01*
X379877Y152353D01*
X379943Y152325D01*
X380007Y152294D01*
X380070Y152259D01*
X380130Y152221D01*
X380189Y152180D01*
X380245Y152136D01*
X380299Y152089D01*
X380350Y152040D01*
X380398Y151987D01*
X380444Y151932D01*
X380486Y151875D01*
X380526Y151815D01*
X380562Y151754D01*
X380595Y151690D01*
X380624Y151625D01*
X380650Y151559D01*
X380673Y151491D01*
X380692Y151422D01*
X380707Y151352D01*
X380718Y151282D01*
X380726Y151211D01*
X380730Y151140D01*
X380730Y151068D01*
X380726Y150997D01*
X380718Y150926D01*
X380707Y150856D01*
X380692Y150786D01*
X380673Y150717D01*
X380650Y150649D01*
X380624Y150583D01*
X380595Y150518D01*
X380562Y150454D01*
X380526Y150393D01*
X380486Y150333D01*
X380444Y150276D01*
X380398Y150221D01*
X380350Y150168D01*
X380299Y150119D01*
X380245Y150072D01*
X380189Y150028D01*
X380130Y149987D01*
X380070Y149949D01*
X380007Y149914D01*
X379943Y149883D01*
X379877Y149855D01*
X379810Y149831D01*
X379742Y149810D01*
X379672Y149793D01*
X379602Y149780D01*
X379532Y149771D01*
X379460Y149765D01*
X379389Y149763D01*
X378049Y149763D01*
X379657Y149763D02*
X380730Y147618D01*
X383471Y147618D02*
X384812Y147618D01*
X384883Y147620D01*
X384955Y147626D01*
X385025Y147635D01*
X385095Y147648D01*
X385165Y147665D01*
X385233Y147686D01*
X385300Y147710D01*
X385366Y147738D01*
X385430Y147769D01*
X385493Y147804D01*
X385553Y147842D01*
X385612Y147883D01*
X385668Y147927D01*
X385722Y147974D01*
X385773Y148023D01*
X385821Y148076D01*
X385867Y148131D01*
X385909Y148188D01*
X385949Y148248D01*
X385985Y148309D01*
X386018Y148373D01*
X386047Y148438D01*
X386073Y148504D01*
X386096Y148572D01*
X386115Y148641D01*
X386130Y148711D01*
X386141Y148781D01*
X386149Y148852D01*
X386153Y148923D01*
X386153Y148995D01*
X386149Y149066D01*
X386141Y149137D01*
X386130Y149207D01*
X386115Y149277D01*
X386096Y149346D01*
X386073Y149414D01*
X386047Y149480D01*
X386018Y149545D01*
X385985Y149609D01*
X385949Y149670D01*
X385909Y149730D01*
X385867Y149787D01*
X385821Y149842D01*
X385773Y149895D01*
X385722Y149944D01*
X385668Y149991D01*
X385612Y150035D01*
X385553Y150076D01*
X385493Y150114D01*
X385430Y150149D01*
X385366Y150180D01*
X385300Y150208D01*
X385233Y150232D01*
X385165Y150253D01*
X385095Y150270D01*
X385025Y150283D01*
X384955Y150292D01*
X384883Y150298D01*
X384812Y150300D01*
X385080Y152444D02*
X383471Y152444D01*
X385080Y152444D02*
X385145Y152442D01*
X385209Y152436D01*
X385273Y152426D01*
X385337Y152413D01*
X385399Y152395D01*
X385460Y152374D01*
X385520Y152350D01*
X385578Y152321D01*
X385635Y152289D01*
X385689Y152254D01*
X385741Y152216D01*
X385791Y152174D01*
X385838Y152130D01*
X385882Y152083D01*
X385924Y152033D01*
X385962Y151981D01*
X385997Y151927D01*
X386029Y151870D01*
X386058Y151812D01*
X386082Y151752D01*
X386103Y151691D01*
X386121Y151629D01*
X386134Y151565D01*
X386144Y151501D01*
X386150Y151437D01*
X386152Y151372D01*
X386150Y151307D01*
X386144Y151243D01*
X386134Y151179D01*
X386121Y151115D01*
X386103Y151053D01*
X386082Y150992D01*
X386058Y150932D01*
X386029Y150874D01*
X385997Y150817D01*
X385962Y150763D01*
X385924Y150711D01*
X385882Y150661D01*
X385838Y150614D01*
X385791Y150570D01*
X385741Y150528D01*
X385689Y150490D01*
X385635Y150455D01*
X385578Y150423D01*
X385520Y150394D01*
X385460Y150370D01*
X385399Y150349D01*
X385337Y150331D01*
X385273Y150318D01*
X385209Y150308D01*
X385145Y150302D01*
X385080Y150300D01*
X385080Y150299D02*
X384008Y150299D01*
D11*
X415100Y838897D02*
X429670Y838897D01*
X368100Y840167D02*
X365100Y840167D01*
X328530Y923417D02*
X328530Y961897D01*
X429670Y890767D02*
X429670Y838897D01*
X328530Y838897D02*
X328530Y890777D01*
X429670Y923417D02*
X429670Y961897D01*
X328530Y961897D01*
X328830Y838897D02*
X343100Y838897D01*
X390100Y840167D02*
X393100Y840167D01*
D12*
X373656Y950952D02*
X372048Y955778D01*
X375265Y955778D02*
X373656Y950952D01*
X378049Y950952D02*
X378049Y955778D01*
X379389Y955778D01*
X379460Y955776D01*
X379532Y955770D01*
X379602Y955761D01*
X379672Y955748D01*
X379742Y955731D01*
X379810Y955710D01*
X379877Y955686D01*
X379943Y955658D01*
X380007Y955627D01*
X380070Y955592D01*
X380130Y955554D01*
X380189Y955513D01*
X380245Y955469D01*
X380299Y955422D01*
X380350Y955373D01*
X380398Y955320D01*
X380444Y955265D01*
X380486Y955208D01*
X380526Y955148D01*
X380562Y955087D01*
X380595Y955023D01*
X380624Y954958D01*
X380650Y954892D01*
X380673Y954824D01*
X380692Y954755D01*
X380707Y954685D01*
X380718Y954615D01*
X380726Y954544D01*
X380730Y954473D01*
X380730Y954401D01*
X380726Y954330D01*
X380718Y954259D01*
X380707Y954189D01*
X380692Y954119D01*
X380673Y954050D01*
X380650Y953982D01*
X380624Y953916D01*
X380595Y953851D01*
X380562Y953787D01*
X380526Y953726D01*
X380486Y953666D01*
X380444Y953609D01*
X380398Y953554D01*
X380350Y953501D01*
X380299Y953452D01*
X380245Y953405D01*
X380189Y953361D01*
X380130Y953320D01*
X380070Y953282D01*
X380007Y953247D01*
X379943Y953216D01*
X379877Y953188D01*
X379810Y953164D01*
X379742Y953143D01*
X379672Y953126D01*
X379602Y953113D01*
X379532Y953104D01*
X379460Y953098D01*
X379389Y953096D01*
X379389Y953097D02*
X378049Y953097D01*
X379657Y953097D02*
X380730Y950952D01*
X383471Y952024D02*
X384544Y955778D01*
X383471Y952024D02*
X386152Y952024D01*
X385348Y953097D02*
X385348Y950952D01*
D11*
X119270Y21563D02*
X104700Y21563D01*
X57700Y22833D02*
X54700Y22833D01*
X18130Y106083D02*
X18130Y144563D01*
X119270Y73433D02*
X119270Y21563D01*
X18130Y21563D02*
X18130Y73443D01*
X119270Y106083D02*
X119270Y144563D01*
X18130Y144563D01*
X18430Y21563D02*
X32700Y21563D01*
X79700Y22833D02*
X82700Y22833D01*
D12*
X63256Y147618D02*
X61648Y152444D01*
X64865Y152444D02*
X63256Y147618D01*
X67649Y147618D02*
X67649Y152444D01*
X68989Y152444D01*
X68989Y152445D02*
X69060Y152443D01*
X69132Y152437D01*
X69202Y152428D01*
X69272Y152415D01*
X69342Y152398D01*
X69410Y152377D01*
X69477Y152353D01*
X69543Y152325D01*
X69607Y152294D01*
X69670Y152259D01*
X69730Y152221D01*
X69789Y152180D01*
X69845Y152136D01*
X69899Y152089D01*
X69950Y152040D01*
X69998Y151987D01*
X70044Y151932D01*
X70086Y151875D01*
X70126Y151815D01*
X70162Y151754D01*
X70195Y151690D01*
X70224Y151625D01*
X70250Y151559D01*
X70273Y151491D01*
X70292Y151422D01*
X70307Y151352D01*
X70318Y151282D01*
X70326Y151211D01*
X70330Y151140D01*
X70330Y151068D01*
X70326Y150997D01*
X70318Y150926D01*
X70307Y150856D01*
X70292Y150786D01*
X70273Y150717D01*
X70250Y150649D01*
X70224Y150583D01*
X70195Y150518D01*
X70162Y150454D01*
X70126Y150393D01*
X70086Y150333D01*
X70044Y150276D01*
X69998Y150221D01*
X69950Y150168D01*
X69899Y150119D01*
X69845Y150072D01*
X69789Y150028D01*
X69730Y149987D01*
X69670Y149949D01*
X69607Y149914D01*
X69543Y149883D01*
X69477Y149855D01*
X69410Y149831D01*
X69342Y149810D01*
X69272Y149793D01*
X69202Y149780D01*
X69132Y149771D01*
X69060Y149765D01*
X68989Y149763D01*
X67649Y149763D01*
X69257Y149763D02*
X70330Y147618D01*
X73071Y147618D02*
X74680Y147618D01*
X74680Y147619D02*
X74745Y147621D01*
X74809Y147627D01*
X74873Y147637D01*
X74937Y147650D01*
X74999Y147668D01*
X75060Y147689D01*
X75120Y147713D01*
X75178Y147742D01*
X75235Y147774D01*
X75289Y147809D01*
X75341Y147847D01*
X75391Y147889D01*
X75438Y147933D01*
X75482Y147980D01*
X75524Y148030D01*
X75562Y148082D01*
X75597Y148136D01*
X75629Y148193D01*
X75658Y148251D01*
X75682Y148311D01*
X75703Y148372D01*
X75721Y148434D01*
X75734Y148498D01*
X75744Y148562D01*
X75750Y148626D01*
X75752Y148691D01*
X75752Y149227D01*
X75750Y149292D01*
X75744Y149356D01*
X75734Y149420D01*
X75721Y149484D01*
X75703Y149546D01*
X75682Y149607D01*
X75658Y149667D01*
X75629Y149725D01*
X75597Y149782D01*
X75562Y149836D01*
X75524Y149888D01*
X75482Y149938D01*
X75438Y149985D01*
X75391Y150029D01*
X75341Y150071D01*
X75289Y150109D01*
X75235Y150144D01*
X75178Y150176D01*
X75120Y150205D01*
X75060Y150229D01*
X74999Y150250D01*
X74937Y150268D01*
X74873Y150281D01*
X74809Y150291D01*
X74745Y150297D01*
X74680Y150299D01*
X73071Y150299D01*
X73071Y152444D01*
X75752Y152444D01*
D11*
X104700Y838563D02*
X119270Y838563D01*
X57700Y839833D02*
X54700Y839833D01*
X18130Y923083D02*
X18130Y961563D01*
X119270Y890433D02*
X119270Y838563D01*
X18130Y838563D02*
X18130Y890443D01*
X119270Y923083D02*
X119270Y961563D01*
X18130Y961563D01*
X18430Y838563D02*
X32700Y838563D01*
X79700Y839833D02*
X82700Y839833D01*
D12*
X63256Y948618D02*
X61648Y953444D01*
X64865Y953444D02*
X63256Y948618D01*
X67649Y948618D02*
X67649Y953444D01*
X68989Y953444D01*
X68989Y953445D02*
X69060Y953443D01*
X69132Y953437D01*
X69202Y953428D01*
X69272Y953415D01*
X69342Y953398D01*
X69410Y953377D01*
X69477Y953353D01*
X69543Y953325D01*
X69607Y953294D01*
X69670Y953259D01*
X69730Y953221D01*
X69789Y953180D01*
X69845Y953136D01*
X69899Y953089D01*
X69950Y953040D01*
X69998Y952987D01*
X70044Y952932D01*
X70086Y952875D01*
X70126Y952815D01*
X70162Y952754D01*
X70195Y952690D01*
X70224Y952625D01*
X70250Y952559D01*
X70273Y952491D01*
X70292Y952422D01*
X70307Y952352D01*
X70318Y952282D01*
X70326Y952211D01*
X70330Y952140D01*
X70330Y952068D01*
X70326Y951997D01*
X70318Y951926D01*
X70307Y951856D01*
X70292Y951786D01*
X70273Y951717D01*
X70250Y951649D01*
X70224Y951583D01*
X70195Y951518D01*
X70162Y951454D01*
X70126Y951393D01*
X70086Y951333D01*
X70044Y951276D01*
X69998Y951221D01*
X69950Y951168D01*
X69899Y951119D01*
X69845Y951072D01*
X69789Y951028D01*
X69730Y950987D01*
X69670Y950949D01*
X69607Y950914D01*
X69543Y950883D01*
X69477Y950855D01*
X69410Y950831D01*
X69342Y950810D01*
X69272Y950793D01*
X69202Y950780D01*
X69132Y950771D01*
X69060Y950765D01*
X68989Y950763D01*
X67649Y950763D01*
X69257Y950763D02*
X70330Y948618D01*
X73071Y951299D02*
X74680Y951299D01*
X74745Y951297D01*
X74809Y951291D01*
X74873Y951281D01*
X74937Y951268D01*
X74999Y951250D01*
X75060Y951229D01*
X75120Y951205D01*
X75178Y951176D01*
X75235Y951144D01*
X75289Y951109D01*
X75341Y951071D01*
X75391Y951029D01*
X75438Y950985D01*
X75482Y950938D01*
X75524Y950888D01*
X75562Y950836D01*
X75597Y950782D01*
X75629Y950725D01*
X75658Y950667D01*
X75682Y950607D01*
X75703Y950546D01*
X75721Y950484D01*
X75734Y950420D01*
X75744Y950356D01*
X75750Y950292D01*
X75752Y950227D01*
X75752Y949959D01*
X75753Y949959D02*
X75751Y949888D01*
X75745Y949816D01*
X75736Y949746D01*
X75723Y949676D01*
X75706Y949606D01*
X75685Y949538D01*
X75661Y949471D01*
X75633Y949405D01*
X75602Y949341D01*
X75567Y949278D01*
X75529Y949218D01*
X75488Y949159D01*
X75444Y949103D01*
X75397Y949049D01*
X75348Y948998D01*
X75295Y948950D01*
X75240Y948904D01*
X75183Y948862D01*
X75123Y948822D01*
X75062Y948786D01*
X74998Y948753D01*
X74933Y948724D01*
X74867Y948698D01*
X74799Y948675D01*
X74730Y948656D01*
X74660Y948641D01*
X74590Y948630D01*
X74519Y948622D01*
X74448Y948618D01*
X74376Y948618D01*
X74305Y948622D01*
X74234Y948630D01*
X74164Y948641D01*
X74094Y948656D01*
X74025Y948675D01*
X73957Y948698D01*
X73891Y948724D01*
X73826Y948753D01*
X73762Y948786D01*
X73701Y948822D01*
X73641Y948862D01*
X73584Y948904D01*
X73529Y948950D01*
X73476Y948998D01*
X73427Y949049D01*
X73380Y949103D01*
X73336Y949159D01*
X73295Y949218D01*
X73257Y949278D01*
X73222Y949341D01*
X73191Y949405D01*
X73163Y949471D01*
X73139Y949538D01*
X73118Y949606D01*
X73101Y949676D01*
X73088Y949746D01*
X73079Y949816D01*
X73073Y949888D01*
X73071Y949959D01*
X73071Y951299D01*
X73073Y951390D01*
X73079Y951481D01*
X73088Y951571D01*
X73102Y951662D01*
X73119Y951751D01*
X73140Y951839D01*
X73165Y951927D01*
X73194Y952014D01*
X73226Y952099D01*
X73261Y952183D01*
X73301Y952265D01*
X73343Y952345D01*
X73389Y952424D01*
X73439Y952500D01*
X73491Y952574D01*
X73547Y952647D01*
X73606Y952716D01*
X73667Y952783D01*
X73732Y952848D01*
X73799Y952909D01*
X73868Y952968D01*
X73940Y953024D01*
X74015Y953076D01*
X74091Y953126D01*
X74170Y953172D01*
X74250Y953214D01*
X74332Y953254D01*
X74416Y953289D01*
X74501Y953321D01*
X74588Y953350D01*
X74675Y953375D01*
X74764Y953396D01*
X74853Y953413D01*
X74944Y953427D01*
X75034Y953436D01*
X75125Y953442D01*
X75216Y953444D01*
D11*
X104700Y293897D02*
X119270Y293897D01*
X57700Y295167D02*
X54700Y295167D01*
X18130Y378417D02*
X18130Y416897D01*
X119270Y345767D02*
X119270Y293897D01*
X18130Y293897D02*
X18130Y345777D01*
X119270Y378417D02*
X119270Y416897D01*
X18130Y416897D01*
X18430Y293897D02*
X32700Y293897D01*
X79700Y295167D02*
X82700Y295167D01*
D12*
X63256Y419952D02*
X61648Y424778D01*
X64865Y424778D02*
X63256Y419952D01*
X67649Y419952D02*
X67649Y424778D01*
X68989Y424778D01*
X69060Y424776D01*
X69132Y424770D01*
X69202Y424761D01*
X69272Y424748D01*
X69342Y424731D01*
X69410Y424710D01*
X69477Y424686D01*
X69543Y424658D01*
X69607Y424627D01*
X69670Y424592D01*
X69730Y424554D01*
X69789Y424513D01*
X69845Y424469D01*
X69899Y424422D01*
X69950Y424373D01*
X69998Y424320D01*
X70044Y424265D01*
X70086Y424208D01*
X70126Y424148D01*
X70162Y424087D01*
X70195Y424023D01*
X70224Y423958D01*
X70250Y423892D01*
X70273Y423824D01*
X70292Y423755D01*
X70307Y423685D01*
X70318Y423615D01*
X70326Y423544D01*
X70330Y423473D01*
X70330Y423401D01*
X70326Y423330D01*
X70318Y423259D01*
X70307Y423189D01*
X70292Y423119D01*
X70273Y423050D01*
X70250Y422982D01*
X70224Y422916D01*
X70195Y422851D01*
X70162Y422787D01*
X70126Y422726D01*
X70086Y422666D01*
X70044Y422609D01*
X69998Y422554D01*
X69950Y422501D01*
X69899Y422452D01*
X69845Y422405D01*
X69789Y422361D01*
X69730Y422320D01*
X69670Y422282D01*
X69607Y422247D01*
X69543Y422216D01*
X69477Y422188D01*
X69410Y422164D01*
X69342Y422143D01*
X69272Y422126D01*
X69202Y422113D01*
X69132Y422104D01*
X69060Y422098D01*
X68989Y422096D01*
X68989Y422097D02*
X67649Y422097D01*
X69257Y422097D02*
X70330Y419952D01*
X73071Y424241D02*
X73071Y424778D01*
X75752Y424778D01*
X74412Y419952D01*
D11*
X104700Y566230D02*
X119270Y566230D01*
X57700Y567500D02*
X54700Y567500D01*
X18130Y650750D02*
X18130Y689230D01*
X119270Y618100D02*
X119270Y566230D01*
X18130Y566230D02*
X18130Y618110D01*
X119270Y650750D02*
X119270Y689230D01*
X18130Y689230D01*
X18430Y566230D02*
X32700Y566230D01*
X79700Y567500D02*
X82700Y567500D01*
D12*
X63256Y692285D02*
X61648Y697111D01*
X64865Y697111D02*
X63256Y692285D01*
X67649Y692285D02*
X67649Y697111D01*
X68989Y697111D01*
X69060Y697109D01*
X69132Y697103D01*
X69202Y697094D01*
X69272Y697081D01*
X69342Y697064D01*
X69410Y697043D01*
X69477Y697019D01*
X69543Y696991D01*
X69607Y696960D01*
X69670Y696925D01*
X69730Y696887D01*
X69789Y696846D01*
X69845Y696802D01*
X69899Y696755D01*
X69950Y696706D01*
X69998Y696653D01*
X70044Y696598D01*
X70086Y696541D01*
X70126Y696481D01*
X70162Y696420D01*
X70195Y696356D01*
X70224Y696291D01*
X70250Y696225D01*
X70273Y696157D01*
X70292Y696088D01*
X70307Y696018D01*
X70318Y695948D01*
X70326Y695877D01*
X70330Y695806D01*
X70330Y695734D01*
X70326Y695663D01*
X70318Y695592D01*
X70307Y695522D01*
X70292Y695452D01*
X70273Y695383D01*
X70250Y695315D01*
X70224Y695249D01*
X70195Y695184D01*
X70162Y695120D01*
X70126Y695059D01*
X70086Y694999D01*
X70044Y694942D01*
X69998Y694887D01*
X69950Y694834D01*
X69899Y694785D01*
X69845Y694738D01*
X69789Y694694D01*
X69730Y694653D01*
X69670Y694615D01*
X69607Y694580D01*
X69543Y694549D01*
X69477Y694521D01*
X69410Y694497D01*
X69342Y694476D01*
X69272Y694459D01*
X69202Y694446D01*
X69132Y694437D01*
X69060Y694431D01*
X68989Y694429D01*
X68989Y694430D02*
X67649Y694430D01*
X69257Y694430D02*
X70330Y692285D01*
X73071Y693625D02*
X73073Y693696D01*
X73079Y693768D01*
X73088Y693838D01*
X73101Y693908D01*
X73118Y693978D01*
X73139Y694046D01*
X73163Y694113D01*
X73191Y694179D01*
X73222Y694243D01*
X73257Y694306D01*
X73295Y694366D01*
X73336Y694425D01*
X73380Y694481D01*
X73427Y694535D01*
X73476Y694586D01*
X73529Y694634D01*
X73584Y694680D01*
X73641Y694722D01*
X73701Y694762D01*
X73762Y694798D01*
X73826Y694831D01*
X73891Y694860D01*
X73957Y694886D01*
X74025Y694909D01*
X74094Y694928D01*
X74164Y694943D01*
X74234Y694954D01*
X74305Y694962D01*
X74376Y694966D01*
X74448Y694966D01*
X74519Y694962D01*
X74590Y694954D01*
X74660Y694943D01*
X74730Y694928D01*
X74799Y694909D01*
X74867Y694886D01*
X74933Y694860D01*
X74998Y694831D01*
X75062Y694798D01*
X75123Y694762D01*
X75183Y694722D01*
X75240Y694680D01*
X75295Y694634D01*
X75348Y694586D01*
X75397Y694535D01*
X75444Y694481D01*
X75488Y694425D01*
X75529Y694366D01*
X75567Y694306D01*
X75602Y694243D01*
X75633Y694179D01*
X75661Y694113D01*
X75685Y694046D01*
X75706Y693978D01*
X75723Y693908D01*
X75736Y693838D01*
X75745Y693768D01*
X75751Y693696D01*
X75753Y693625D01*
X75751Y693554D01*
X75745Y693482D01*
X75736Y693412D01*
X75723Y693342D01*
X75706Y693272D01*
X75685Y693204D01*
X75661Y693137D01*
X75633Y693071D01*
X75602Y693007D01*
X75567Y692944D01*
X75529Y692884D01*
X75488Y692825D01*
X75444Y692769D01*
X75397Y692715D01*
X75348Y692664D01*
X75295Y692616D01*
X75240Y692570D01*
X75183Y692528D01*
X75123Y692488D01*
X75062Y692452D01*
X74998Y692419D01*
X74933Y692390D01*
X74867Y692364D01*
X74799Y692341D01*
X74730Y692322D01*
X74660Y692307D01*
X74590Y692296D01*
X74519Y692288D01*
X74448Y692284D01*
X74376Y692284D01*
X74305Y692288D01*
X74234Y692296D01*
X74164Y692307D01*
X74094Y692322D01*
X74025Y692341D01*
X73957Y692364D01*
X73891Y692390D01*
X73826Y692419D01*
X73762Y692452D01*
X73701Y692488D01*
X73641Y692528D01*
X73584Y692570D01*
X73529Y692616D01*
X73476Y692664D01*
X73427Y692715D01*
X73380Y692769D01*
X73336Y692825D01*
X73295Y692884D01*
X73257Y692944D01*
X73222Y693007D01*
X73191Y693071D01*
X73163Y693137D01*
X73139Y693204D01*
X73118Y693272D01*
X73101Y693342D01*
X73088Y693412D01*
X73079Y693482D01*
X73073Y693554D01*
X73071Y693625D01*
X73340Y696038D02*
X73342Y696103D01*
X73348Y696167D01*
X73358Y696231D01*
X73371Y696295D01*
X73389Y696357D01*
X73410Y696418D01*
X73434Y696478D01*
X73463Y696536D01*
X73495Y696593D01*
X73530Y696647D01*
X73568Y696699D01*
X73610Y696749D01*
X73654Y696796D01*
X73701Y696840D01*
X73751Y696882D01*
X73803Y696920D01*
X73857Y696955D01*
X73914Y696987D01*
X73972Y697016D01*
X74032Y697040D01*
X74093Y697061D01*
X74155Y697079D01*
X74219Y697092D01*
X74283Y697102D01*
X74347Y697108D01*
X74412Y697110D01*
X74477Y697108D01*
X74541Y697102D01*
X74605Y697092D01*
X74669Y697079D01*
X74731Y697061D01*
X74792Y697040D01*
X74852Y697016D01*
X74910Y696987D01*
X74967Y696955D01*
X75021Y696920D01*
X75073Y696882D01*
X75123Y696840D01*
X75170Y696796D01*
X75214Y696749D01*
X75256Y696699D01*
X75294Y696647D01*
X75329Y696593D01*
X75361Y696536D01*
X75390Y696478D01*
X75414Y696418D01*
X75435Y696357D01*
X75453Y696295D01*
X75466Y696231D01*
X75476Y696167D01*
X75482Y696103D01*
X75484Y696038D01*
X75482Y695973D01*
X75476Y695909D01*
X75466Y695845D01*
X75453Y695781D01*
X75435Y695719D01*
X75414Y695658D01*
X75390Y695598D01*
X75361Y695540D01*
X75329Y695483D01*
X75294Y695429D01*
X75256Y695377D01*
X75214Y695327D01*
X75170Y695280D01*
X75123Y695236D01*
X75073Y695194D01*
X75021Y695156D01*
X74967Y695121D01*
X74910Y695089D01*
X74852Y695060D01*
X74792Y695036D01*
X74731Y695015D01*
X74669Y694997D01*
X74605Y694984D01*
X74541Y694974D01*
X74477Y694968D01*
X74412Y694966D01*
X74347Y694968D01*
X74283Y694974D01*
X74219Y694984D01*
X74155Y694997D01*
X74093Y695015D01*
X74032Y695036D01*
X73972Y695060D01*
X73914Y695089D01*
X73857Y695121D01*
X73803Y695156D01*
X73751Y695194D01*
X73701Y695236D01*
X73654Y695280D01*
X73610Y695327D01*
X73568Y695377D01*
X73530Y695429D01*
X73495Y695483D01*
X73463Y695540D01*
X73434Y695598D01*
X73410Y695658D01*
X73389Y695719D01*
X73371Y695781D01*
X73358Y695845D01*
X73348Y695909D01*
X73342Y695973D01*
X73340Y696038D01*
M02*
