G04 EAGLE Gerber RS-274X export*
G75*
%MOMM*%
%FSLAX34Y34*%
%LPD*%
%INSoldermask Bottom*%
%IPPOS*%
%AMOC8*
5,1,8,0,0,1.08239X$1,22.5*%
G01*
%ADD10C,1.203200*%
%ADD11R,1.503200X1.703200*%
%ADD12R,1.703200X1.503200*%
%ADD13C,2.082800*%
%ADD14R,1.403200X1.003200*%
%ADD15R,2.082800X2.082800*%
%ADD16P,3.467112X8X292.500000*%
%ADD17R,1.753200X0.903200*%
%ADD18C,0.959600*%


D10*
X379100Y907200D03*
X379100Y634700D03*
X379000Y362200D03*
X379200Y89800D03*
X68800Y89700D03*
X68700Y362100D03*
X68700Y634400D03*
X68700Y906800D03*
D11*
X384100Y540900D03*
X403100Y540900D03*
X384900Y318700D03*
X403900Y318700D03*
X385100Y50700D03*
X404100Y50700D03*
X384100Y862700D03*
X403100Y862700D03*
X75300Y47700D03*
X94300Y47700D03*
X74500Y809700D03*
X93500Y809700D03*
X76700Y317700D03*
X95700Y317700D03*
X73900Y543700D03*
X92900Y543700D03*
D12*
X268200Y375600D03*
X268200Y356600D03*
D11*
X383300Y265900D03*
X402300Y265900D03*
X384500Y116900D03*
X403500Y116900D03*
X384700Y810900D03*
X403700Y810900D03*
X58900Y115900D03*
X77900Y115900D03*
X74100Y861900D03*
X93100Y861900D03*
X76300Y262900D03*
X95300Y262900D03*
X74500Y595900D03*
X93500Y595900D03*
X384700Y592900D03*
X403700Y592900D03*
D13*
X202000Y404100D03*
X227400Y404100D03*
X202000Y378700D03*
X227400Y378700D03*
X202000Y353300D03*
X227400Y353300D03*
D14*
X272800Y469700D03*
X272800Y487700D03*
D15*
X354100Y564722D03*
X379100Y564722D03*
X404100Y564722D03*
D16*
X335100Y634722D03*
X423100Y634722D03*
D15*
X354100Y292278D03*
X379100Y292278D03*
X404100Y292278D03*
D16*
X335100Y362278D03*
X423100Y362278D03*
D15*
X354100Y19833D03*
X379100Y19833D03*
X404100Y19833D03*
D16*
X335100Y89833D03*
X423100Y89833D03*
D15*
X354100Y837167D03*
X379100Y837167D03*
X404100Y837167D03*
D16*
X335100Y907167D03*
X423100Y907167D03*
D15*
X43700Y19833D03*
X68700Y19833D03*
X93700Y19833D03*
D16*
X24700Y89833D03*
X112700Y89833D03*
D15*
X43700Y836833D03*
X68700Y836833D03*
X93700Y836833D03*
D16*
X24700Y906833D03*
X112700Y906833D03*
D15*
X43700Y292167D03*
X68700Y292167D03*
X93700Y292167D03*
D16*
X24700Y362167D03*
X112700Y362167D03*
D15*
X43700Y564500D03*
X68700Y564500D03*
X93700Y564500D03*
D16*
X24700Y634500D03*
X112700Y634500D03*
D17*
X245250Y558450D03*
X245250Y545750D03*
X245250Y533050D03*
X245250Y520350D03*
X245250Y507650D03*
X245250Y494950D03*
X245250Y482250D03*
X245250Y469550D03*
X190750Y469550D03*
X190750Y482250D03*
X190750Y494950D03*
X190750Y507650D03*
X190750Y520350D03*
X190750Y533050D03*
X190750Y545750D03*
X190750Y558450D03*
D18*
X89000Y96000D03*
X354000Y133000D03*
X354000Y879000D03*
X274000Y318000D03*
M02*
