G04 EAGLE Gerber RS-274X export*
G75*
%MOMM*%
%FSLAX34Y34*%
%LPD*%
%INSolderpaste Bottom*%
%IPPOS*%
%AMOC8*
5,1,8,0,0,1.08239X$1,22.5*%
G01*
%ADD10R,1.300000X1.500000*%
%ADD11R,1.500000X1.300000*%
%ADD12R,1.200000X0.800000*%
%ADD13R,1.550000X0.700000*%


D10*
X384100Y540900D03*
X403100Y540900D03*
X384900Y318700D03*
X403900Y318700D03*
X385100Y50700D03*
X404100Y50700D03*
X384100Y862700D03*
X403100Y862700D03*
X75300Y47700D03*
X94300Y47700D03*
X74500Y809700D03*
X93500Y809700D03*
X76700Y317700D03*
X95700Y317700D03*
X73900Y543700D03*
X92900Y543700D03*
D11*
X268200Y375600D03*
X268200Y356600D03*
D10*
X383300Y265900D03*
X402300Y265900D03*
X384500Y116900D03*
X403500Y116900D03*
X384700Y810900D03*
X403700Y810900D03*
X58900Y115900D03*
X77900Y115900D03*
X74100Y861900D03*
X93100Y861900D03*
X76300Y262900D03*
X95300Y262900D03*
X74500Y595900D03*
X93500Y595900D03*
X384700Y592900D03*
X403700Y592900D03*
D12*
X272800Y469700D03*
X272800Y487700D03*
D13*
X245250Y558450D03*
X245250Y545750D03*
X245250Y533050D03*
X245250Y520350D03*
X245250Y507650D03*
X245250Y494950D03*
X245250Y482250D03*
X245250Y469550D03*
X190750Y469550D03*
X190750Y482250D03*
X190750Y494950D03*
X190750Y507650D03*
X190750Y520350D03*
X190750Y533050D03*
X190750Y545750D03*
X190750Y558450D03*
M02*
