M48
;GenerationSoftware,Autodesk,EAGLE,9.4.2*%
;CreationDate,2020-04-29T21:02:32Z*%
FMAT,2
ICI,OFF
METRIC,TZ,000.000
T4C0.350
T3C1.000
T2C1.016
T1C2.000
%
G90
M71
T1
X11270Y63450
X2470Y63450
X11270Y36217
X2470Y36217
X11270Y90683
X2470Y90683
X11270Y8983
X2470Y8983
X42310Y90717
X33510Y90717
X42310Y8983
X33510Y8983
X42310Y36228
X33510Y36228
X42310Y63472
X33510Y63472
T2
X20200Y40410
X22740Y40410
X20200Y37870
X22740Y37870
X20200Y35330
X22740Y35330
T3
X40410Y56472
X35410Y29228
X37910Y29228
X40410Y29228
X37910Y56472
X35410Y56472
X35410Y1983
X37910Y1983
X40410Y1983
X6870Y90680
X6870Y63440
X35410Y83717
X37910Y83717
X40410Y83717
X6870Y36210
X6880Y8970
X4370Y1983
X6870Y1983
X9370Y1983
X37920Y8980
X37900Y36220
X4370Y83683
X6870Y83683
X9370Y83683
X37910Y63470
X37910Y90720
X4370Y29217
X6870Y29217
X9370Y29217
X9370Y56450
X6870Y56450
X4370Y56450
T4
X35400Y87900
X27400Y31800
X35400Y13300
X8900Y9600
M30